<svg width="1200" height="1400" viewBox="0 0 1200 1400" fill="none" xmlns="http://www.w3.org/2000/svg">
  <rect width="1200" height="1400" fill="#F6F0E6"/>
  <rect width="1200" height="1400" fill="url(#paint0_linear)"/>
  <circle cx="918" cy="214" r="170" fill="#C9A96E" fill-opacity="0.18"/>
  <circle cx="234" cy="280" r="196" fill="#8FBC8F" fill-opacity="0.16"/>
  <rect x="182" y="120" width="836" height="1160" rx="72" fill="#FFFDF9" fill-opacity="0.84"/>
  <circle cx="600" cy="482" r="176" fill="#E9D8C2"/>
  <path d="M458 500C458 421 521 358 600 358C679 358 742 421 742 500V570H458V500Z" fill="#6A5442" fill-opacity="0.18"/>
  <path d="M452 766C452 664 535 582 638 582C741 582 824 664 824 766V958H452V766Z" fill="#8FBC8F" fill-opacity="0.28"/>
  <path d="M510 412C544 374 592 352 642 352C694 352 744 376 778 418" stroke="#6A5442" stroke-width="14" stroke-linecap="round"/>
  <path d="M532 1012C556 948 610 914 676 914C742 914 796 948 820 1012" stroke="#C9A96E" stroke-width="14" stroke-linecap="round"/>
  <circle cx="548" cy="486" r="14" fill="#6A5442" fill-opacity="0.4"/>
  <circle cx="652" cy="486" r="14" fill="#6A5442" fill-opacity="0.4"/>
  <defs>
    <linearGradient id="paint0_linear" x1="102" y1="102" x2="1088" y2="1294" gradientUnits="userSpaceOnUse">
      <stop stop-color="#FFFDF9"/>
      <stop offset="1" stop-color="#E8F1E5"/>
    </linearGradient>
  </defs>
</svg>
