<svg width="1600" height="1000" viewBox="0 0 1600 1000" fill="none" xmlns="http://www.w3.org/2000/svg">
  <rect width="1600" height="1000" fill="#EDE3D5"/>
  <rect width="1600" height="1000" fill="url(#paint0_linear)"/>
  <circle cx="244" cy="182" r="244" fill="#8FBC8F" fill-opacity="0.22"/>
  <circle cx="1376" cy="146" r="160" fill="#C9A96E" fill-opacity="0.24"/>
  <circle cx="1320" cy="824" r="232" fill="#6A5442" fill-opacity="0.12"/>
  <rect x="176" y="132" width="1248" height="736" rx="72" fill="#FFFDF9" fill-opacity="0.44"/>
  <rect x="230" y="184" width="1140" height="632" rx="54" fill="#FFF9F2" fill-opacity="0.74"/>
  <ellipse cx="800" cy="732" rx="340" ry="52" fill="#D3B58C" fill-opacity="0.28"/>
  <path d="M474 678C560 582 680 518 808 518C936 518 1056 582 1142 678" stroke="#6A5442" stroke-opacity="0.28" stroke-width="16" stroke-linecap="round"/>
  <rect x="520" y="350" width="560" height="252" rx="126" fill="#F4EDE2"/>
  <path d="M640 470C699 421 778 394 862 394C946 394 1024 421 1084 470" stroke="#8FBC8F" stroke-width="16" stroke-linecap="round"/>
  <path d="M558 556C634 483 711 446 800 446C889 446 966 483 1042 556" stroke="#C9A96E" stroke-width="18" stroke-linecap="round"/>
  <circle cx="598" cy="476" r="24" fill="#8FBC8F" fill-opacity="0.24"/>
  <circle cx="1004" cy="476" r="24" fill="#C9A96E" fill-opacity="0.28"/>
  <defs>
    <linearGradient id="paint0_linear" x1="126" y1="108" x2="1426" y2="918" gradientUnits="userSpaceOnUse">
      <stop stop-color="#FFFDF9"/>
      <stop offset="0.53" stop-color="#F5F0E8"/>
      <stop offset="1" stop-color="#E8F1E5"/>
    </linearGradient>
  </defs>
</svg>
