<svg width="1200" height="900" viewBox="0 0 1200 900" fill="none" xmlns="http://www.w3.org/2000/svg">
  <rect width="1200" height="900" fill="#FBF8F2"/>
  <rect width="1200" height="900" fill="url(#paint0_linear)"/>
  <circle cx="222" cy="174" r="180" fill="#8FBC8F" fill-opacity="0.2"/>
  <circle cx="980" cy="760" r="180" fill="#C9A96E" fill-opacity="0.2"/>
  <rect x="144" y="128" width="912" height="644" rx="56" fill="#FFFDF9" fill-opacity="0.8"/>
  <rect x="240" y="330" width="720" height="184" rx="92" fill="#EFE3D3"/>
  <path d="M330 470C430 410 534 380 610 380C686 380 790 410 890 470" stroke="#6A5442" stroke-width="14" stroke-linecap="round"/>
  <path d="M302 532C382 482 482 456 606 456C730 456 830 482 910 532" stroke="#8FBC8F" stroke-width="12" stroke-linecap="round"/>
  <rect x="308" y="242" width="148" height="76" rx="38" fill="#E6F2E6"/>
  <rect x="744" y="242" width="148" height="76" rx="38" fill="#E6F2E6"/>
  <circle cx="382" cy="280" r="18" fill="#8FBC8F"/>
  <circle cx="818" cy="280" r="18" fill="#8FBC8F"/>
  <defs>
    <linearGradient id="paint0_linear" x1="120" y1="84" x2="1086" y2="798" gradientUnits="userSpaceOnUse">
      <stop stop-color="#FFFDF9"/>
      <stop offset="1" stop-color="#F5F0E8"/>
    </linearGradient>
  </defs>
</svg>
